<svg width="44" height="40" viewBox="0 0 44 40" fill="none" xmlns="http://www.w3.org/2000/svg">
<path d="M0.502197 0.304382H39C41.7614 0.304382 44 2.54296 44 5.30438V34.9416C44 37.703 41.7614 39.9416 39 39.9416H0.502197V0.304382Z" fill="#FF8F27"/>
<path d="M31.9582 13.136C31.5677 12.749 30.9346 12.749 30.544 13.136L18.5634 25.0081L13.9582 20.4447C13.5677 20.0577 12.9346 20.0578 12.544 20.4447C12.1535 20.8317 12.1535 21.4591 12.544 21.8461L17.8563 27.1101C18.2467 27.497 18.8803 27.4968 19.2705 27.1101L31.9582 14.5374C32.3488 14.1505 32.3487 13.5231 31.9582 13.136Z" fill="white"/>
</svg>
